<?xml version="1.0" standalone="no"?>
<!DOCTYPE svg PUBLIC "-//W3C//DTD SVG 20010904//EN"
 "http://www.w3.org/TR/2001/REC-SVG-20010904/DTD/svg10.dtd">
<svg version="1.0" xmlns="http://www.w3.org/2000/svg"
 width="63.000000pt" height="63.000000pt" viewBox="0 0 63.000000 63.000000"
 preserveAspectRatio="xMidYMid meet">

<g transform="translate(0.000000,63.000000) scale(0.100000,-0.100000)"
fill="#000000" stroke="none">
<path d="M298 470 c-9 -6 -47 -52 -84 -103 -37 -50 -78 -104 -91 -118 -32 -35
-28 -73 8 -77 22 -3 34 9 88 87 35 49 71 97 82 107 18 16 20 16 38 0 11 -10
47 -58 82 -107 54 -78 66 -90 88 -87 49 6 37 38 -60 169 -112 149 -113 151
-151 129z"/>
</g>
</svg>
